<svg width="24" height="24" viewBox="0 0 24 24" fill="none" xmlns="http://www.w3.org/2000/svg">
<path d="M14.0476 14.24C15.3611 14.24 16.6207 13.7006 17.5495 12.7404C18.4782 11.7802 19 10.4779 19 9.12C19 7.76209 18.4782 6.4598 17.5495 5.49961C16.6207 4.53943 15.3611 4 14.0476 4H9.40476C9.15849 4 8.9223 4.10114 8.74816 4.28118C8.57402 4.46121 8.47619 4.70539 8.47619 4.96V12.32H6.92857C6.6823 12.32 6.44611 12.4211 6.27197 12.6012C6.09783 12.7812 6 13.0254 6 13.28C6 13.5346 6.09783 13.7788 6.27197 13.9588C6.44611 14.1389 6.6823 14.24 6.92857 14.24H8.47619V15.52H6.92857C6.6823 15.52 6.44611 15.6211 6.27197 15.8012C6.09783 15.9812 6 16.2254 6 16.48C6 16.7346 6.09783 16.9788 6.27197 17.1588C6.44611 17.3389 6.6823 17.44 6.92857 17.44H8.47619V19.04C8.47619 19.2946 8.57402 19.5388 8.74816 19.7188C8.9223 19.8989 9.15849 20 9.40476 20C9.65103 20 9.88722 19.8989 10.0614 19.7188C10.2355 19.5388 10.3333 19.2946 10.3333 19.04V17.44H13.7381C13.9844 17.44 14.2206 17.3389 14.3947 17.1588C14.5688 16.9788 14.6667 16.7346 14.6667 16.48C14.6667 16.2254 14.5688 15.9812 14.3947 15.8012C14.2206 15.6211 13.9844 15.52 13.7381 15.52H10.3333V14.24H14.0476ZM10.3333 5.92H14.0476C14.8685 5.92 15.6558 6.25714 16.2363 6.85726C16.8168 7.45737 17.1429 8.27131 17.1429 9.12C17.1429 9.96869 16.8168 10.7826 16.2363 11.3827C15.6558 11.9829 14.8685 12.32 14.0476 12.32H10.3333V5.92Z" fill="#A2A2A6"/>
</svg>
